<svg xmlns="http://www.w3.org/2000/svg" aria-hidden="true" style="position:absolute;width:0;height:0;overflow:hidden">
  <defs>
    <symbol id="icon-instagram" viewBox="0 0 32 32">
      <path d="M31.968 9.408c-.074-1.7-.35-2.87-.744-3.882a7.85 7.85 0 0 0-1.849-2.837l-.001-.001A7.8 7.8 0 0 0 26.595.862l-.053-.018c-1.02-.394-2.18-.67-3.88-.744C20.946.02 20.4 0 16.06 0c-4.346 0-4.89.02-6.596.094-1.7.074-2.868.35-3.88.744a7.8 7.8 0 0 0-2.839 1.849l-.001.001A7.8 7.8 0 0 0 .918 5.467L.9 5.52C.506 6.54.232 7.7.156 9.4c-.08 1.714-.1 2.26-.1 6.604s.02 4.888.094 6.594c.074 1.7.35 2.87.744 3.882a7.9 7.9 0 0 0 1.85 2.84 7.9 7.9 0 0 0 2.832 1.842c1.02.394 2.18.67 3.882.744 1.706.076 2.25.094 6.596.094s4.888-.02 6.594-.094c1.7-.074 2.87-.35 3.882-.744a8.25 8.25 0 0 0 4.663-4.625l.019-.055c.394-1.02.67-2.184.744-3.884.076-1.706.094-2.25.094-6.594s-.006-4.89-.08-6.596zM29.09 22.474c-.07 1.56-.332 2.406-.552 2.968a5.35 5.35 0 0 1-3.002 3.027l-.036.013c-.562.218-1.412.48-2.968.548-1.688.076-2.194.094-6.464.094s-4.782-.02-6.464-.094c-1.564-.068-2.406-.33-2.97-.55a5 5 0 0 1-1.837-1.193l-.001-.001a5 5 0 0 1-1.183-1.804l-.011-.034c-.22-.562-.48-1.412-.55-2.968-.074-1.688-.094-2.196-.094-6.464s.02-4.782.094-6.464c.07-1.564.332-2.406.55-2.97a4.9 4.9 0 0 1 1.2-1.838 5 5 0 0 1 1.84-1.194c.56-.22 1.412-.48 2.968-.55 1.688-.074 2.194-.094 6.464-.094 4.276 0 4.78.02 6.464.094 1.562.07 2.406.332 2.968.55a4.95 4.95 0 0 1 1.84 1.194 5 5 0 0 1 1.192 1.84c.22.56.482 1.412.55 2.968.076 1.688.094 2.194.094 6.464s-.018 4.77-.092 6.458"/>
      <path d="M16.06 7.782a8.222 8.222 0 0 0-.01 16.44h.009a8.222 8.222 0 0 0 .01-16.44zm0 13.554a5.334 5.334 0 1 1 0-10.668 5.334 5.334 0 1 1 0 10.668M26.524 7.458a1.92 1.92 0 0 1-3.84 0 1.92 1.92 0 0 1 3.84 0"/>
    </symbol>
    <symbol id="icon-twitter" viewBox="0 0 32 32">
      <path d="M32 6.078c-1.1.495-2.376.859-3.713 1.029l-.067.007a6.56 6.56 0 0 0 2.873-3.58l.013-.046a13 13 0 0 1-4.075 1.574l-.085.014A6.56 6.56 0 0 0 15.598 9.56c0 .52.044 1.02.152 1.496A18.55 18.55 0 0 1 2.255 4.228l-.027-.034a6.5 6.5 0 0 0-.895 3.311 6.56 6.56 0 0 0 2.888 5.442l.023.015a6.47 6.47 0 0 1-2.997-.823l.033.017v.072a6.59 6.59 0 0 0 5.213 6.438l.043.008a6.5 6.5 0 0 1-1.675.216h-.047.002l-.085.001q-.615-.001-1.195-.119l.038.006c.873 2.624 3.273 4.496 6.121 4.57h.009a13.1 13.1 0 0 1-8.126 2.798H1.57c-.538 0-1.054-.024-1.57-.09C2.825 27.902 6.285 29 10.001 29h.066-.003c12.072 0 18.672-10 18.672-18.668q0-.432-.024-.848a13.1 13.1 0 0 0 3.258-3.359z"/>
    </symbol>
    <symbol id="icon-facebook" viewBox="0 0 32 32">
      <path d="M21.33 5.314h2.92V.226A37 37 0 0 0 20.11 0h-.122.006C15.782 0 12.9 2.65 12.9 7.52V12H8.25v5.688h4.648V32h5.698V17.69h4.46l.708-5.69h-5.17V8.08c.002-1.644.444-2.768 2.736-2.768z"/>
    </symbol>
    <symbol id="icon-linkedin" viewBox="0 0 32 32">
      <path d="M31.992 32H32V20.26c0-5.74-1.236-10.164-7.948-10.164-3.226 0-5.392 1.772-6.276 3.45h-.094v-2.912H11.32V32h6.628V21.42c0-2.786.528-5.48 3.976-5.48 3.4 0 3.45 3.18 3.45 5.66V32zM.528 10.636h6.634V32H.528zM3.842 0C1.722 0 .002 1.72.002 3.84s1.72 3.88 3.84 3.88 3.844-1.76 3.844-3.88S5.96 0 3.84 0z"/>
    </symbol>
    <symbol id="icon-antenna" viewBox="0 0 32 32">
      <path d="m30.773 22.098-8.443-8.505.937-4.615c.242.094.499.143.759.145h.032a2.16 2.16 0 1 0-2.029-1.42l-.005-.015-4.96.605L8.973.16A.53.53 0 0 0 8.597 0a.54.54 0 0 0-.373.155L6.711 1.659a.53.53 0 0 0 0 .754l.814.825C6.382 5.3 5.709 7.76 5.709 10.377c0 4.106 1.656 7.825 4.336 10.526l-.001-.001q.063.061.146.098a3 3 0 0 0-.052.546v6.188h-6.4A2.67 2.67 0 0 0 1.071 30.4v1.067c0 .295.239.534.534.534h24.534a.535.535 0 0 0 .534-.534V30.4a2.67 2.67 0 0 0-2.667-2.666h-6.4v-2.742a14.784 14.784 0 0 0 10.166-1.502l-.077.039.819.823a.53.53 0 0 0 .377.16.53.53 0 0 0 .373-.155l1.512-1.505a.535.535 0 0 0 0-.754zM23.28 6.233a1.067 1.067 0 1 1 .752 1.822h-.003a1.066 1.066 0 0 1-.746-1.822zm-1.256 3.505-.599 2.945-1.175-1.182zm-.605-.902-1.92 1.909-1.485-1.493zM24.004 28.8a1.6 1.6 0 0 1 1.6 1.6v.534H2.138V30.4a1.6 1.6 0 0 1 1.6-1.6zm-7.466-2.134v1.067h-5.334v-1.067zM11.204 25.6v-4.053c0-1.294 1.197-2.346 2.666-2.346s2.667 1.053 2.667 2.346V25.6zm6.4-1.696v-2.357c0-1.882-1.675-3.413-3.733-3.413h-.059c-1.353 0-2.54.707-3.213 1.771l-.009.016a13.82 13.82 0 0 1-3.811-9.55c0-2.314.567-4.496 1.569-6.414l-.036.077 18.602 18.709c-1.823.947-3.979 1.502-6.266 1.502a14 14 0 0 1-3.136-.357l.093.018zm11.289-.683L7.836 2.04l.755-.752 7.935 7.98c.003 0 .006.007.009.009l13.114 13.191z"/>
      <path d="M13.876 20.267h-.007a1.6 1.6 0 0 0-.003 3.2h.007a1.6 1.6 0 0 0 .003-3.2m.373 1.978a.534.534 0 0 1-.91-.379v-.002a.535.535 0 0 1 .53-.53.535.535 0 0 1 .374.912z"/>
    </symbol>
    <symbol id="icon-clock" viewBox="0 0 32 32">
      <path fill="#2e2f42" d="M31.297 15.302C31.295 6.849 24.442-.001 15.989 0 7.538.002.686 6.855.688 15.308.69 22.096 5.11 27.851 11.229 29.853l.108.031q.091.029.187.029a.67.67 0 0 0 .342-.093.64.64 0 0 0 .284-.357l3.865-12.25a1.913 1.913 0 1 0-.851-3.63l.011-.005-5.106-5.107a.637.637 0 1 0-.902.902l5.104 5.109a1.871 1.871 0 0 0 .532 2.306l.004.003-3.682 11.673C3.847 25.783.12 17.71 2.802 10.432 5.483 3.155 13.557-.573 20.834 2.109s11.004 10.755 8.323 18.032c-1.345 3.581-4.004 6.406-7.374 7.938l-.088.036-.398-1.875a.638.638 0 0 0-1.049-.343l.001-.001-3.837 3.425a.639.639 0 0 0 .227 1.084l.005.001 4.899 1.564a.637.637 0 0 0 .818-.743l.001.004-.391-1.839c5.528-2.374 9.329-7.772 9.329-14.057v-.034.002zm-15.305-.638a.638.638 0 0 1 0 1.276.638.638 0 0 1 0-1.276m2.101 14.863 2.184-1.948.603 2.84z" style="fill:var(--color1, #2e2f42)"/>
      <path fill="#4d5ae5" d="M15.354 3.185V4.46a.638.638 0 1 0 1.275 0V3.185a.639.639 0 0 0-1.274-.002v.001zM3.876 14.664a.637.637 0 1 0 .001 1.274h1.275a.638.638 0 1 0 0-1.274zm24.232 1.275a.637.637 0 1 0 0-1.274h-1.275a.639.639 0 0 0-.002 1.274h.001z" style="fill:var(--color2, #4d5ae5)"/>
    </symbol>
    <symbol id="icon-diagram" viewBox="0 0 32 32">
      <path fill="#4d5ae5" d="M14.925 14.965h1.066v4.797h-1.066zm4.265 2.132h1.066v2.665H19.19zm-8.529 1.599h1.066v1.066h-1.066zm-3.198-.533h1.066v1.599H7.463z" style="fill:var(--color2, #4d5ae5)"/>
      <path fill="#2e2f42" d="M1.599 28.291h25.587a1.6 1.6 0 0 0 1.599-1.599v-2.133a1.6 1.6 0 0 0-1.599-1.599h-.533V9.667l3.028-2.868a1.608 1.608 0 1 0-.742-.753l-.004-.01-2.282 2.163v-1.23a1.6 1.6 0 0 0-1.599-1.599H3.732a1.6 1.6 0 0 0-1.599 1.599V22.96H1.6a1.6 1.6 0 0 0-1.599 1.599v2.133A1.6 1.6 0 0 0 1.6 28.291zM30.384 4.837a.533.533 0 0 1 0 1.066.533.533 0 0 1 0-1.066M3.199 6.969c0-.295.239-.534.533-.534h21.322c.294 0 .533.239.533.534v2.238l-1.066 1.013V8.035a.53.53 0 0 0-.533-.533H4.798a.533.533 0 0 0-.533.533v13.326c0 .295.239.534.533.534h19.19a.534.534 0 0 0 .533-.534v-9.674l1.066-1.01V22.96H3.199zm4.797 6.93h-.005a1.6 1.6 0 1 0 1.112 2.748l1.853.93a.53.53 0 0 0 .636-.123l3.938-4.431 3.872 2.902a.53.53 0 0 0 .686-.04l3.365-3.188v8.131H5.33V8.568h18.124v2.66L19.682 14.8l-3.905-2.928a.53.53 0 0 0-.717.072v.001l-3.993 4.493-1.493-.746q.017-.096.021-.194a1.6 1.6 0 0 0-1.599-1.599m.533 1.599a.533.533 0 0 1-1.066 0 .533.533 0 0 1 1.066 0m3.198 8.528h5.331v.533a.533.533 0 0 1-.533.533h-4.264a.533.533 0 0 1-.533-.533zm-10.661.534c0-.294.239-.533.533-.533h9.062v.533a1.6 1.6 0 0 0 1.599 1.599h4.265a1.6 1.6 0 0 0 1.599-1.599v-.533h9.062c.294 0 .533.238.533.533v2.133a.534.534 0 0 1-.534.533H1.598a.533.533 0 0 1-.533-.533z" style="fill:var(--color1, #2e2f42)"/>
    </symbol>
    <symbol id="icon-astronaut" viewBox="0 0 32 32">
      <path fill="#4d5ae5" d="M31.974 4.524a.54.54 0 0 0-.427-.362h-.003l-1.911-.278-.855-1.731c-.179-.365-.776-.365-.956 0l-.855 1.731-1.91.278a.533.533 0 0 0-.296.91l1.383 1.348-.326 1.903a.533.533 0 0 0 .774.561l1.709-.899 1.709.899a.534.534 0 0 0 .773-.566v.003l-.326-1.903L31.84 5.07a.54.54 0 0 0 .134-.55zm-2.462 1.327a.53.53 0 0 0-.153.472l.191 1.114-1-.526a.52.52 0 0 0-.499.001l.003-.001-1 .526.191-1.114a.537.537 0 0 0-.153-.472l-.81-.79 1.119-.162a.53.53 0 0 0 .401-.292l.5-1.013.5 1.013a.54.54 0 0 0 .402.292l1.119.162zm-3.378 14.671h-1.067v1.067h1.067zm0 2.133h-1.067v1.067h1.067zm1.066-1.066h-1.067v1.067H27.2zm-2.133 0H24v1.067h1.067zm-2.667 4.8h-1.067v1.067H22.4zm0 2.134h-1.067v1.067H22.4zm1.067-1.067H22.4v1.067h1.067zm-2.133 0h-1.067v1.067h1.067zM16 24.256h-1.066v1.067H16zm0 2.133h-1.066v1.067H16zm1.067-1.066H16v1.067h1.067zm-2.133 0h-1.067v1.067h1.067zM5.867 6.122H4.801v1.066h1.066zm0 2.133H4.801v1.067h1.066zm1.066-1.066H5.867v1.067h1.066zm-2.133 0H3.733v1.067H4.8z" style="fill:var(--color2, #4d5ae5)"/>
      <path fill="#2e2f42" d="M24.715 14.159a1.78 1.78 0 0 0-1.179-.704l-.009-.001a1.77 1.77 0 0 0-1.344.356l.004-.003-1.252.96-1.898 1.417-1.358-.541c2.421-1.086 4.114-3.508 4.114-6.32 0-3.823-3.122-6.933-6.961-6.933S7.87 5.5 7.87 9.323a6.86 6.86 0 0 0 1.12 3.758l-2.769-.024c-.008 0-.015.005-.024.005a.5.5 0 0 0-.158.032l.003-.001q-.02.006-.038.014-.01.002-.019.007l-3.234 1.597-1.893.911a.4.4 0 0 0-.065.036l.002-.001a1.78 1.78 0 0 0-.593 2.304l-.005-.01c.22.429.595.745 1.056.89a1.772 1.772 0 0 0 1.388-.133l-.009.005 1.388-.738 2.264-1.169 1.357-.008-5.442 5.415-.002.002-1.339 1.333c-.303.299-.49.714-.49 1.173v.005a1.668 1.668 0 0 0 1.669 1.663 1.67 1.67 0 0 0 1.18-.485l1.314-1.308 1.741-1.3.901.897-3.102 3.088c-.303.299-.49.714-.49 1.173v.004a1.669 1.669 0 0 0 1.67 1.664c.428 0 .855-.162 1.18-.485l3.482-3.466.001-.002 1.01-1-.004-.003q.011-.007.022-.015l5.166-5.658 3.471.494q.038.006.075.005a.5.5 0 0 0 .188-.038q.025-.01.05-.023c.019-.009.039-.015.057-.027l3.213-2.134c.012-.008.018-.02.029-.029s.029-.014.04-.025l1.272-1.192a1.776 1.776 0 0 0 .208-2.366l.003.005zM2.13 17.77a.71.71 0 0 1-.558.052.717.717 0 0 1-.215-1.258l.002-.001 1.314-.632.316.925.133.388zm3.498-1.827-1.548.8-.255-.747-.183-.537 2.026-1zm15.099-6.621a5.8 5.8 0 0 1-.599 2.559l-4.181-1.899a1.86 1.86 0 0 0-.782-1.384l-.006-.004 1.464-4.86c2.378.755 4.105 2.974 4.105 5.587zm-11.789 0c0-3.235 2.644-5.867 5.894-5.867.253 0 .5.022.745.053l-1.432 4.753c-.019 0-.037-.005-.057-.005h-.001a1.87 1.87 0 0 0-1.871 1.866 1.87 1.87 0 0 0 1.871 1.867h.001c.694 0 1.294-.383 1.618-.944l3.863 1.755a5.89 5.89 0 0 1-4.736 2.39c-3.25 0-5.895-2.633-5.895-5.867zm5.957.799c0 .441-.362.8-.806.8h-.001a.805.805 0 0 1-.805-.8c0-.441.361-.8.806-.8s.806.359.806.8M2.465 25.146a.61.61 0 0 1-.855 0 .59.59 0 0 1 0-.844l.962-.959.851.848zm3.213 3.734a.606.606 0 0 1-.855.001.59.59 0 0 1 0-.844l.963-.959.852.848zm3.483-3.469-.002.001-1.765 1.76-.851-.848 1.763-1.756.002-.001c.04-.04.065-.088.09-.135.007-.014.02-.026.026-.04.017-.041.019-.085.025-.129.004-.024.014-.047.014-.073 0-.035-.012-.07-.02-.105-.007-.032-.007-.065-.018-.096a.5.5 0 0 0-.091-.137c-.01-.012-.014-.027-.025-.038h-.001l-.001-.002-1.607-1.6c-.017-.017-.039-.024-.058-.038a.5.5 0 0 0-.084-.056l-.003-.001a.5.5 0 0 0-.09-.032l-.003-.001a.4.4 0 0 0-.101-.02h-.023a1 1 0 0 0-.076.006h.003a.5.5 0 0 0-.108.021l.004-.001a.5.5 0 0 0-.096.046l.002-.001c-.02.011-.043.015-.061.029l-1.774 1.324-.901-.897 2.399-2.386 4.36 4.289zm6.818-7.017c-.015-.002-.03.004-.045.003l-.027-.001a1 1 0 0 0-.091.008h.003q-.045.006-.088.021a.5.5 0 0 0-.099.048l.002-.001q-.044.026-.083.061c-.013.011-.028.017-.04.029l-4.698 5.146-4.328-4.256 2.833-2.819a.535.535 0 0 0-.378-.911h-.001l-2.219.013.027-1.607 3.104.027a6.93 6.93 0 0 0 4.979 2.101h.003c.438 0 .864-.045 1.279-.122.04.032.079.064.13.085l2.41.96.331 1.643zm4.041.179-.313-1.558 1.446-1.08.947 1.257zm3.754-2.831-.838.785-.931-1.236.831-.637a.73.73 0 0 1 .543-.143.716.716 0 0 1 .395 1.231" style="fill:var(--color1, #2e2f42)"/>
      <path fill="#2e2f42" d="m13.602 18.544-2.143-2.134a.53.53 0 0 0-.752 0l-2.143 2.134a.534.534 0 0 0 0 .756l2.143 2.133a.53.53 0 0 0 .752 0l2.143-2.133a.53.53 0 0 0 0-.756m-2.519 1.759-1.386-1.381 1.386-1.381 1.387 1.381zm6.082-15.232-.258 1.035c.071.018 1.738.452 1.738 2.149h1.067c0-2.017-1.666-2.966-2.546-3.185zm2.546 4.251h-1.067v1.067h1.067z" style="fill:var(--color1, #2e2f42)"/>
    </symbol>
  </defs>
</svg>
